HIERARCHY
ROOT Hips
{
 OFFSET 0.000000 0.000000 0.000000
 CHANNELS 6 Xposition Yposition Zposition Yrotation Xrotation Zrotation
 JOINT Chest
 {
  OFFSET 0.000000 9.585900 0.002600
  CHANNELS 3 Yrotation Xrotation Zrotation
  JOINT Chest2
  {
   OFFSET 0.000000 9.601200 -0.005300
   CHANNELS 3 Yrotation Xrotation Zrotation
   JOINT Chest3
   {
    OFFSET 0.000000 9.561800 0.000000
    CHANNELS 3 Yrotation Xrotation Zrotation
    JOINT Chest4
    {
     OFFSET 0.000000 9.552100 0.000000
     CHANNELS 3 Yrotation Xrotation Zrotation
     JOINT Neck
     {
      OFFSET 0.000000 14.453000 0.000000
      CHANNELS 3 Yrotation Xrotation Zrotation
      JOINT Head
      {
       OFFSET 0.000000 8.936500 -0.011300
       CHANNELS 3 Yrotation Xrotation Zrotation
       End Site
       {
        OFFSET 0.000000 17.073600 -0.006000
       }
      }
     }
     JOINT RightCollar
     {
      OFFSET -2.921100 9.558500 0.000000
      CHANNELS 3 Yrotation Xrotation Zrotation
      JOINT RightShoulder
      {
       OFFSET -13.519700 0.000000 0.000000
       CHANNELS 3 Yrotation Xrotation Zrotation
       JOINT RightElbow
       {
        OFFSET 0.000000 -29.696600 0.000000
        CHANNELS 3 Yrotation Xrotation Zrotation
        JOINT RightWrist
        {
         OFFSET 0.000000 -24.004700 0.000000
         CHANNELS 3 Yrotation Xrotation Zrotation
         End Site
         {
          OFFSET 0.000000 -17.728500 0.000000
         }
        }
       }
      }
     }
     JOINT LeftCollar
     {
      OFFSET 2.921100 9.558500 0.000000
      CHANNELS 3 Yrotation Xrotation Zrotation
      JOINT LeftShoulder
      {
       OFFSET 13.519700 0.000000 0.000000
       CHANNELS 3 Yrotation Xrotation Zrotation
       JOINT LeftElbow
       {
        OFFSET 0.000000 -29.696600 0.000000
        CHANNELS 3 Yrotation Xrotation Zrotation
        JOINT LeftWrist
        {
         OFFSET 0.000000 -24.004700 0.000000
         CHANNELS 3 Yrotation Xrotation Zrotation
         End Site
         {
          OFFSET 0.000000 -17.728500 0.000000
         }
        }
       }
      }
     }
    }
   }
  }
 }
 JOINT RightHip
 {
  OFFSET -7.771700 -0.012900 -0.001300
  CHANNELS 3 Yrotation Xrotation Zrotation
  JOINT RightKnee
  {
   OFFSET 0.000000 -40.869800 0.001200
   CHANNELS 3 Yrotation Xrotation Zrotation
   JOINT RightAnkle
   {
    OFFSET 0.000000 -39.717900 0.002100
    CHANNELS 3 Yrotation Xrotation Zrotation
    JOINT RightToe
    {
     OFFSET 0.000000 -4.965400 11.033500
     CHANNELS 3 Yrotation Xrotation Zrotation
     End Site
     {
      OFFSET 0.000000 -1.423100 5.872300
     }
    }
   }
  }
 }
 JOINT LeftHip
 {
  OFFSET 7.771700 -0.012900 -0.001300
  CHANNELS 3 Yrotation Xrotation Zrotation
  JOINT LeftKnee
  {
   OFFSET 0.000000 -40.869800 0.001200
   CHANNELS 3 Yrotation Xrotation Zrotation
   JOINT LeftAnkle
   {
    OFFSET 0.000000 -39.717900 0.002100
    CHANNELS 3 Yrotation Xrotation Zrotation
    JOINT LeftToe
    {
     OFFSET 0.000000 -4.965400 11.033500
     CHANNELS 3 Yrotation Xrotation Zrotation
     End Site
     {
      OFFSET 0.000000 -1.423100 5.872300
     }
    }
   }
  }
 }
}
MOTION
Frames: 11
Frame Time: 0.008333
0.000000 85.388000 0.000000 0.000000 -5.767877 0.000000 0.000000 11.653817 0.000000 0.000000 -5.885947 0.000000 0.000000 -0.000000 0.000000 0.000000 -0.000000 0.000000 0.000000 12.528835 0.000000 0.000000 0.711642 0.000000 0.000000 -0.000000 0.000000 0.000000 0.000000 -90.000000 0.000000 -2.309062 0.000000 0.000000 2.309062 0.000000 0.000000 -0.000000 0.000000 0.000000 -0.000000 90.000000 0.000000 -2.309062 0.000000 0.000000 2.309062 0.000000 0.000000 8.520406 0.000000 0.000000 1.905762 0.000000 -0.000000 -4.658285 0.000000 0.000000 -0.000000 0.000000 0.000000 8.520406 0.000000 0.000000 1.905762 0.000000 -0.000000 -4.658285 0.000000 0.000000 -0.000000 0.000000
-45.095459 57.365916 19.170534 162.837714 -10.329095 0.655775 3.833148 6.557151 1.987590 0.168603 0.311776 0.045772 0.279141 0.499501 0.111241 3.525638 6.393641 1.094703 2.348365 17.202335 -0.144840 4.387398 -3.810967 -1.064649 5.291945 9.777600 4.981115 -8.264718 -12.984529 -1.214618 -15.571595 -73.525844 9.897659 -6.731611 6.395741 -31.215021 -8.849904 9.204826 -6.254016 15.278060 -10.477179 -4.001475 40.956529 -56.136395 -41.609601 2.725592 3.680545 15.023942 -13.869122 -62.085035 3.834157 -31.179747 73.682016 -31.162501 -1.532602 -7.754335 -1.866340 -0.386906 0.910538 -0.122615 2.027563 -64.836745 11.961071 40.823817 63.899885 34.047069 -17.864934 -8.053086 4.714258 -0.321700 -1.287227 -0.093915
-45.097709 57.368323 19.172812 162.881299 -10.265075 0.644537 3.823536 6.577455 1.936601 0.167983 0.312369 0.043286 0.271482 0.459993 0.136082 3.514246 6.450711 1.015920 2.238294 17.161154 -0.057086 4.155308 -3.893909 -0.866595 5.187361 9.709933 4.825173 -7.981234 -12.840283 -1.206706 -16.327530 -73.337440 11.731786 -6.804272 6.197991 -31.214765 -8.724195 9.166236 -6.066055 14.717726 -10.170143 -4.271225 40.889029 -55.821399 -42.204345 2.757697 3.618967 15.000908 -13.881867 -62.143055 3.859896 -31.250368 73.662883 -31.252846 -1.566398 -7.750639 -1.830532 -0.377393 0.910682 -0.121443 1.998825 -64.889473 11.967513 40.779039 63.889366 33.979639 -17.874060 -8.068149 4.718067 -0.330921 -1.258215 -0.087270
-45.100424 57.370993 19.171709 162.911610 -10.208266 0.645692 3.817531 6.601423 1.877807 0.166984 0.312510 0.040824 0.287305 0.526251 0.086479 3.481604 6.392923 1.007325 2.128749 17.128784 0.020626 3.927176 -3.959576 -0.686781 5.093694 9.638978 4.678669 -7.691546 -12.736911 -1.336764 -16.934368 -73.121037 13.454696 -6.794390 6.071792 -31.083699 -8.586828 9.128630 -5.863326 14.284682 -9.890559 -4.445074 40.525507 -55.577984 -42.708708 2.762677 3.578303 14.885481 -13.858223 -62.196367 3.869349 -31.286349 73.646634 -31.338173 -1.586752 -7.745161 -1.769814 -0.402212 0.910292 -0.145159 1.997088 -64.933066 11.959306 40.734988 63.884451 33.917592 -17.900628 -8.086307 4.715097 -0.311595 -1.231417 -0.076734
-45.100286 57.372995 19.170710 162.944059 -10.145087 0.633421 3.796975 6.576875 1.856600 0.169132 0.331872 0.027294 0.293938 0.565604 0.056276 3.452479 6.380994 0.972659 2.019396 17.103631 0.087764 3.702659 -4.010959 -0.526312 4.999853 9.550645 4.540548 -7.377454 -12.646835 -1.585959 -17.374974 -72.914533 15.020421 -6.713087 5.990671 -30.859450 -8.446535 9.095484 -5.651329 13.970591 -9.645692 -4.534683 39.876506 -55.434564 -43.099756 2.729677 3.569915 14.686847 -13.876584 -62.253866 3.909160 -31.346349 73.633504 -31.422822 -1.611100 -7.739487 -1.747270 -0.405921 0.906303 -0.133774 1.960382 -64.986685 11.981844 40.710609 63.878339 33.874006 -17.902876 -8.103689 4.718825 -0.253471 -1.208429 -0.071912
-45.101584 57.373638 19.170625 162.982397 -10.064384 0.632014 3.778009 6.589467 1.791674 0.156150 0.257348 0.071091 0.298970 0.620789 0.018311 3.422131 6.391213 0.926740 1.909606 17.084068 0.144008 3.480900 -4.051232 -0.385590 4.900083 9.439045 4.412688 -7.035631 -12.553594 -1.936465 -17.646013 -72.744653 16.423555 -6.582327 5.925898 -30.597365 -8.301152 9.058721 -5.429018 13.734143 -9.428431 -4.546017 38.993971 -55.405561 -43.371290 2.650579 3.595880 14.424264 -13.884153 -62.333208 3.928535 -31.462436 73.615243 -31.535188 -1.669910 -7.742466 -1.763939 -0.355251 0.906832 -0.100549 1.942194 -65.062839 11.971490 40.733110 63.865427 33.855863 -17.873717 -8.097813 4.761480 -0.292040 -1.218396 -0.106308
-45.099521 57.373963 19.165212 163.003106 -10.011977 0.630410 3.771928 6.624422 1.734442 0.161152 0.245232 0.077634 0.285207 0.614615 0.016949 3.391594 6.404410 0.882170 1.799610 17.068974 0.189737 3.262196 -4.082652 -0.263984 4.794251 9.302653 4.295089 -6.667462 -12.449691 -2.376061 -17.767945 -72.623671 17.692148 -6.428322 5.860600 -30.351104 -8.142180 9.006346 -5.192088 13.523236 -9.225373 -4.481385 37.945343 -55.493898 -43.546080 2.509530 3.631308 14.142041 -13.871161 -62.386256 3.951344 -31.527086 73.610663 -31.631424 -1.699570 -7.738446 -1.754652 -0.358506 0.900895 -0.079250 1.919758 -65.100433 11.997836 40.711687 63.866116 33.800525 -17.889236 -8.123344 4.769811 -0.268566 -1.195378 -0.102575
-45.095456 57.372920 19.159898 163.020738 -9.955524 0.625006 3.758914 6.630450 1.693973 0.159862 0.251056 0.072857 0.282885 0.610661 0.015999 3.362765 6.421841 0.838664 1.689592 17.057614 0.224842 3.046902 -4.106561 -0.161796 4.684037 9.140662 4.186284 -6.283710 -12.331511 -2.900431 -17.805442 -72.549928 18.902510 -6.278144 5.779591 -30.176806 -7.967436 8.933503 -4.939413 13.301797 -9.034146 -4.345072 36.776678 -55.727322 -43.617038 2.328877 3.684436 13.855912 -13.872039 -62.445004 3.991724 -31.605982 73.608732 -31.742231 -1.732921 -7.733728 -1.730601 -0.354694 0.891813 -0.074660 1.883737 -65.140602 12.042247 40.695849 63.866382 33.748043 -17.900631 -8.155631 4.772102 -0.268817 -1.166889 -0.097654
-45.091276 57.371396 19.149594 163.059098 -9.922864 0.631397 3.717715 6.655151 1.642374 0.167342 0.257754 0.066763 0.272107 0.607004 0.016699 3.334390 6.443612 0.797146 1.579832 17.049799 0.248598 2.835931 -4.123400 -0.080492 4.572975 8.957106 4.083447 -5.907547 -12.206178 -3.504245 -17.818486 -72.506123 20.131928 -6.154030 5.671919 -30.115320 -7.780488 8.845344 -4.673874 13.054158 -8.861990 -4.147210 35.519483 -56.094859 -43.558631 2.161983 3.788269 13.552353 -13.869104 -62.486432 3.995650 -31.653800 73.627747 -31.851493 -1.726604 -7.740578 -1.666109 -0.406648 0.884736 -0.095218 1.821403 -65.149182 12.118956 40.638102 63.887680 33.628637 -17.993951 -8.181850 4.742119 -0.207102 -1.136547 -0.050164
-45.087413 57.369191 19.136381 163.072736 -9.901782 0.655641 3.690838 6.686286 1.580845 0.173468 0.265830 0.061435 0.268853 0.590614 0.024862 3.299005 6.481383 0.751790 1.471404 17.045326 0.260362 2.631523 -4.133556 -0.021806 4.466448 8.759406 3.984404 -5.548471 -12.082073 -4.180767 -17.849594 -72.474273 21.422364 -6.076237 5.543044 -30.164610 -7.590807 8.751460 -4.404608 12.770603 -8.715643 -3.894490 34.259773 -56.506239 -43.451636 1.998886 3.909533 13.260741 -13.832625 -62.516769 3.960380 -31.647588 73.654571 -31.888202 -1.717626 -7.765099 -1.617808 -0.441868 0.892711 -0.123317 1.829658 -65.150177 12.121455 40.619614 63.898034 33.567428 -18.034390 -8.198134 4.742019 -0.182550 -1.122185 -0.043700
-45.079037 57.365981 19.124753 163.082811 -9.875625 0.657520 3.662713 6.705565 1.546016 0.163083 0.306050 0.033710 0.295210 0.518841 0.069928 3.247327 6.545661 0.696389 1.365749 17.043672 0.259598 2.436466 -4.137916 0.012817 4.367499 8.554904 3.889132 -5.198607 -11.966540 -4.922538 -17.949145 -72.436971 22.809050 -6.051550 5.405565 -30.301991 -7.411304 8.659211 -4.144876 12.447435 -8.596041 -3.587063 33.096424 -56.938315 -43.392040 1.836416 4.026396 12.986153 -13.804817 -62.553728 3.975789 -31.773157 73.666122 -32.039178 -1.766687 -7.769237 -1.594113 -0.424163 0.880183 -0.123387 1.801653 -65.156627 12.167041 40.603020 63.905275 33.513562 -18.055512 -8.228806 4.744421 -0.172644 -1.094095 -0.040862
